<?xml version="1.0" encoding="utf-8"?>
<!-- Generator: Adobe Illustrator 22.1.0, SVG Export Plug-In . SVG Version: 6.00 Build 0)  -->
<svg version="1.1" id="Layer_1" xmlns="http://www.w3.org/2000/svg" xmlns:xlink="http://www.w3.org/1999/xlink" x="0px" y="0px"
	 viewBox="0 0 456 266" style="enable-background:new 0 0 456 266;" xml:space="preserve">
<style type="text/css">
	.st0{fill:none;stroke:#FEFEFE;stroke-miterlimit:10;}
	.st1{fill:none;}
</style>
<g>
	<rect x="26.9" y="128.9" class="st0" width="129.5" height="64.3"/>
	<path class="st0" d="M114.8,168.4c0,0.8-2.1,3.6-7.6,3.6c-8.3,0-15.1-4.2-24.9-4.2c-7.7,0-10.3,4.6-10.3,7.4c0,0.4-0.1,0.6-0.4,0.6
		s-0.4-0.3-0.4-0.7c0-3.2,2.5-8.9,11.6-8.9c3.3,0,6.3,0.5,9.2,1.2c-0.2-0.3-0.3-0.7-0.3-1.1c0-1.1,1.7-9.1,6.2-20.1
		c5-12.1,12-22.6,13-22.8c-3.9-0.6-8.6-1-14.1-1c-12.9,0-22.1,5-22.1,13.3c0,7.2,7.5,10.8,11.8,10.8c0.6,0,0.8,0.1,0.8,0.4
		c0,0.4-0.3,0.5-1.2,0.5c-4.6,0-13.2-3.3-13.2-12.3c0-9,11-14.4,23.7-14.4c17.2,0,31,4.4,31,5.6c0,0.5-0.6,1.2-1,1.2
		c-0.6,0-5.4-2.6-15.1-4c0.4,0.2,0.9,0.7,0.9,1c0,0.7-6.6,8.1-12.6,22.9c-4.1,10.1-6.1,18.1-6.2,19.7l-0.2,0.7
		c4.8,1.2,9.3,2.6,14.4,2.6c5,0,6.6-2.1,6.9-2.1C114.6,168.1,114.8,168.2,114.8,168.4z"/>
</g>
<g>
	<rect x="5.9" y="181.4" class="st0" width="250.5" height="64.3"/>
	<path class="st0" d="M81.3,174.7c-9.7,0-19.3,3.6-25.7,9.4c4.5,2.2,7.2,7.8,7.2,13c0,6.7-4.2,12-8.9,12c-4.3,0-7.6-3.2-7.6-8.9
		c0-5.9,2.5-11.1,6.6-15.4c-0.4,0-0.9-0.1-1.3-0.1c-5.8,0-10,4.4-10.7,6.6c0,0.3-0.3,0.4-0.4,0.4c-0.3,0-0.4-0.2-0.4-0.4
		c0-1.3,3.7-8,11.5-8c0.9,0,1.7,0.1,2.6,0.4c6.7-6.3,17-10.2,27.2-10.2c15.4,0,23.8,8.1,23.8,20.9c0,18.4-12.2,32.5-30.2,32.5
		c-6.8,0-12.9-1.9-17.7-3.1c-2.7,3.7-5.6,6.1-8.7,6.1c-2.2,0-4.1-1.4-4.1-3.8c0-2.6,2.8-4.6,7-4.6c1.4,0,3,0.3,4.8,0.7
		c3.3-4.9,6.5-12.4,9.8-20.1c5.9-13.8,12.5-20.4,14.1-21.7c0.6-0.4,0.9-0.5,1.1-0.5c0.3,0,0.7,0.3,0.7,0.7c0,0.3-0.4,0.7-0.8,1
		c-1.7,1.2-7.6,7.4-13.3,21c-3.2,7.5-6.3,14.8-9.6,20c4.7,1.1,10.4,2.8,16.7,2.8c17.5,0,28.8-14.1,28.8-30.9
		C103.4,182.5,95.6,174.7,81.3,174.7z M55.4,223.2c-1.5-0.3-2.8-0.5-4-0.5c-3.3,0-5.4,1.6-5.4,3.2c0,1.5,1.1,2.2,2.5,2.2
		C50.9,228.1,53.2,226.2,55.4,223.2z M54.5,185.2c-4,4.1-6.6,9.2-6.6,14.9c0,4.9,2.4,7.5,5.9,7.5c4,0,7.2-4.6,7.2-10.5
		C61.1,192.2,58.8,186.9,54.5,185.2z"/>
	<path class="st0" d="M119.1,209.2c-2.5,2.9-7.4,7.6-10.7,7.6c-1.7,0-3.2-1.2-3.2-3.3c0-6.3,9.2-15,16.1-15c3,0,4.4,1.6,4.4,3.2
		c0,1.2-0.8,2-1.2,2c-0.3,0-0.4-0.1-0.4-0.4c0-0.3,0.2-0.7,0.2-1.3c0-0.9-0.5-2.2-2.4-2.2c-7.1,0-15,8.3-15,13.6
		c0,1.3,0.7,1.9,1.7,1.9c2.7,0,7-4,9.2-6.6c1.7-2,2.9-4,3.6-4c0.4,0,0.8,0.3,0.8,0.8c0,0.4-1.3,1.9-1.3,4.2c0,2.4,1.1,3.5,2.8,3.5
		c1.8,0,4.3-1.6,7.6-5.3c0,0,0.3-0.4,0.6-0.4c0.4,0,0.7,0.3,0.7,0.6c0,0.3-0.3,0.7-0.3,0.7c-3.6,3.9-6.4,5.9-8.8,5.9
		C120.8,214.5,119.1,212.3,119.1,209.2z"/>
	<path class="st0" d="M157.5,226c6.6,0,10.8-3.7,12.4-4.9c0.3-0.2,0.4-0.3,0.6-0.3c0.2,0,0.4,0.2,0.4,0.4s-0.2,0.4-0.4,0.6
		c-1.6,1.6-6.2,5.6-13.1,5.6c-7.4,0-13.8-4.4-13.8-11.1c0-7.7,6.3-12,6.3-14.7c0-0.7-0.6-1.2-1.3-1.2c-4.1,0-12.8,6.9-19.5,14.8
		c-0.4,0.6-0.7,0.8-1.1,0.8c-0.4,0-0.9-0.4-0.9-1c0-0.5,0.8-2,2.1-4.4c2.4-4.2,7.5-11.2,8.5-11.2c0.4,0,0.9,0.4,0.9,0.8
		c0,0.3-0.2,0.4-0.7,1c-2.3,2.6-5.4,6.7-7.6,10.6c4.9-5.6,13.9-13,18.7-13c1.7,0,2.8,1.2,2.8,2.8c0,3.4-6.6,7.7-6.6,14.6
		C145.3,222,150.5,226,157.5,226z"/>
	<path class="st0" d="M177.2,189.9c0-4.9-3.3-7.6-7.9-7.6c-14.2,0-25.9,11.8-41.2,11.8c-7.2,0-10.5-3.9-10.5-7.9
		c0-0.4,0.1-0.7,0.5-0.7c0.3,0,0.5,0.2,0.5,0.7c0,3.4,3,6.8,9.5,6.8c15.5,0,26.4-11.9,41.2-11.9c5.2,0,9.2,3.2,9.2,8.9
		c0,11.7-14.9,25.8-22,25.8c-2.2,0-3.7-1.4-3.7-3.7c0-4.4,6.7-13.1,7.7-13.1c0.4,0,0.8,0.3,0.8,0.7c0,0.1,0,0.4-0.3,0.7
		c-1.6,1.9-6.4,7.9-6.4,11.6c0,1.5,1,2.4,2.4,2.4C163.2,214.3,177.2,200.9,177.2,189.9z M170,188.3c0,0.9-0.9,2.6-1.9,2.6
		c-0.6,0-1-0.3-1-1c0-1.1,1-2.5,1.9-2.5C169.6,187.4,170,187.7,170,188.3z"/>
	<path class="st0" d="M177.1,216.9c-3.3,0-6.2-2-6.2-5.7c0-6,8-12.5,12.9-12.5c2,0,3.2,1.2,3.2,2.8c0,3.8-8.8,7.4-14.2,8.7
		c0,0.4,0,0.8,0,1.2c0,2.4,1.7,4,4.4,4c7.3,0,13.6-7.6,13.6-7.6s0.3-0.4,0.7-0.4c0.4,0,0.6,0.3,0.6,0.6c0,0.3-0.3,0.7-0.3,0.7
		S184.5,216.9,177.1,216.9z M173.2,208.7c4.9-1.2,12.2-4.4,12.2-7.4c0-0.6-0.5-1.2-1.4-1.2C180.3,200.1,174.9,204.3,173.2,208.7z"/>
	<path class="st0" d="M195,216.3c-2.7,0-4.8-1.9-4.8-5c0-10.8,14.2-30.5,20-30.5c1.6,0,2.6,1,2.6,2.7c0,4.8-12.4,17.5-20.4,24.9
		c0,0-0.6,0.8-0.6,2.8c0,2.3,1.2,3.6,3.5,3.6c4.1,0,9.4-6,10.3-7c0,0,0.3-0.4,0.6-0.4c0.4,0,0.7,0.3,0.7,0.6c0,0.3-0.3,0.7-0.3,0.7
		C205.6,209.6,199.7,216.3,195,216.3z M192.5,206.4c6.6-6.4,18.8-18.8,18.8-23.2c0-0.7-0.4-1.1-1.1-1.1
		C206.1,182.1,195.7,196.9,192.5,206.4z"/>
	<path class="st0" d="M205.9,208.9c-0.4,0-0.6-0.3-0.6-0.5c0-0.3,0.3-0.7,0.3-0.7c2.4-2.7,4.4-5.7,5.6-7.8c1.1-2,2.4-3.2,3.1-3.2
		c0.5,0,1.2,0.6,1.2,1c0,0.7-3.1,2.5-3.1,5.1c0,2.8,2.3,4.9,2.3,8.9v0c2.6-0.3,5.2-1.3,7.6-4.2c0,0,0.3-0.4,0.6-0.4
		c0.4,0,0.7,0.3,0.7,0.6c0,0.3-0.3,0.7-0.3,0.7c-2.8,3.2-5.9,4.3-8.7,4.6c-0.7,2.6-3.4,4.1-6.4,4.1c-2.3,0-3.9-1.5-3.9-2.8
		c0-1.7,1.6-2.5,3.8-2.5c1.7,0,3.3,0.1,5,0v-0.2c0-3.4-2.3-5.6-2.3-8.6c0,0.1-1.7,2.5-4.3,5.4C206.5,208.6,206.2,208.9,205.9,208.9z
		 M212.8,213.3c-1.6,0-3.1,0-4.3,0c-1.8,0-2.8,0.3-2.8,1.2s0.9,1.7,2.4,1.7C210.4,216.1,212.2,215.2,212.8,213.3z"/>
</g>
<g>
	<path class="st0" d="M121.4,154.8c1.4,0,2.3,1,2.3,2.3c0,1.6-2,4.3-3.8,5.9c0.3,2.7,2.6,5.9,2.6,9.8c0,0.3,0,0.4,0,0.7
		c2.7-0.7,5.3-2,7.6-4.8c0,0,0.3-0.4,0.6-0.4c0.4,0,0.7,0.3,0.7,0.6c0,0.3-0.3,0.7-0.3,0.7c-2.8,3.2-5.9,4.6-8.8,5.3
		c-0.9,2.9-3.7,4.8-6.6,4.8c-2.3,0-3.9-1.5-3.9-2.8c0-1.7,1.2-2.3,3.6-2.4c1.8,0,3.7-0.1,5.5-0.4c0-0.3,0.1-0.7,0.1-1.1
		c0-3.4-1.8-5.9-2.3-8.7c0,0-1.6,2.5-4.3,5.5c0,0-0.3,0.3-0.7,0.3c-0.4,0-0.6-0.3-0.6-0.5c0-0.3,0.3-0.7,0.3-0.7
		c2.4-2.7,3.7-4.8,4.8-6.9C118.1,158.5,119.2,154.8,121.4,154.8z M120.3,175.1c-4,0.6-7.2,0-7.2,1.5c0,0.9,0.9,1.7,2.4,1.7
		C117.6,178.3,119.5,177.1,120.3,175.1z M122.1,157.1c0-0.4-0.3-0.7-0.7-0.7c-1.3,0-1.7,2.8-1.8,4.8
		C120.7,160.3,122.1,158.1,122.1,157.1z"/>
	<path class="st0" d="M141.9,170.1c-2.5,2.9-7.4,7.6-10.7,7.6c-1.7,0-3.2-1.2-3.2-3.3c0-6.3,9.2-15,16.1-15c3,0,4.4,1.6,4.4,3.2
		c0,1.2-0.8,2-1.2,2c-0.3,0-0.4-0.1-0.4-0.4c0-0.3,0.2-0.7,0.2-1.3c0-0.9-0.5-2.2-2.4-2.2c-7.1,0-15,8.3-15,13.6
		c0,1.3,0.7,1.9,1.7,1.9c2.7,0,7-4,9.2-6.6c1.7-2,2.9-4,3.6-4c0.4,0,0.8,0.3,0.8,0.8c0,0.4-1.3,1.9-1.3,4.2c0,2.4,1.1,3.5,2.8,3.5
		c1.8,0,4.3-1.6,7.6-5.3c0,0,0.3-0.4,0.6-0.4c0.4,0,0.7,0.3,0.7,0.6c0,0.3-0.3,0.7-0.3,0.7c-3.6,3.9-6.4,5.9-8.8,5.9
		C143.7,175.4,141.9,173.2,141.9,170.1z"/>
	<path class="st0" d="M194.2,117.1c-0.3,0-0.4-0.3-0.4-0.4c0-0.2,0.1-0.4,0.4-0.4c0.1,0,0.3,0,0.4,0c1.8,0.6,6.3,2.3,6.3,7.9
		c0,13-23.3,18.7-23.3,26.6c0,2.3,1.5,3.8,4.3,3.8c5.7,0,13.6-8.7,13.6-14.8c0-3.2-2-5.1-6-5.1c-14.4,0-25.3,18.7-31.6,29.6
		c-2.1,3.7-3.2,6.3-3.2,6.3c2.8-2.7,9.6-8.2,12.9-8.2c1.9,0,3.2,1.2,3.2,3.3c0,6.3-8.2,14.1-15.1,14.1c-2.1,0-3.3-1.1-3.3-2.5
		c0-3.3,6.9-2.7,13.1-3.2c4.3-0.4,8.2-2.8,10.5-5.5c0,0,0.3-0.4,0.7-0.4c0.3,0,0.6,0.3,0.6,0.6c0,0.3-0.3,0.7-0.3,0.7
		c-3.3,3.5-7.2,5.3-11.6,5.8c-5.2,0.5-11.4,0-11.4,2c0,0.7,0.7,1.2,1.8,1.2c5.7,0,13.2-6.8,13.2-12.5c0-1.3-0.7-1.9-1.7-1.9
		c-2.5,0-8.5,4.6-11.7,7.7c-1.3,1.3-1.7,1.9-2,1.9c-0.4,0-1-0.5-1-1.1c0-0.7,1.2-3.9,4.1-9.1c6.4-11.2,17.4-30.1,33-30.1
		c4.8,0,7.3,2.8,7.3,6.7c0,6.8-8.8,15.9-15.1,15.9c-3.3,0-5.6-2.2-5.6-4.9c0-8.9,23.3-14.8,23.3-26.8
		C199.6,119.2,196,117.7,194.2,117.1z"/>
	<path class="st0" d="M181.3,177.8c-3.3,0-6.2-2-6.2-5.7c0-6,8-12.5,12.9-12.5c2,0,3.2,1.2,3.2,2.8c0,3.8-8.8,7.4-14.2,8.7
		c0,0.4,0,0.8,0,1.2c0,2.4,1.7,4,4.4,4c7.3,0,13.6-7.6,13.6-7.6s0.3-0.4,0.7-0.4c0.4,0,0.6,0.3,0.6,0.6c0,0.3-0.3,0.7-0.3,0.7
		S188.8,177.8,181.3,177.8z M177.5,169.6c4.9-1.2,12.2-4.4,12.2-7.4c0-0.6-0.5-1.2-1.4-1.2C184.6,161,179.2,165.2,177.5,169.6z"/>
	<path class="st0" d="M235.2,161.4c0-4.4-2.6-6.8-7.9-6.8c-7.3,0-13.9,6.2-15.9,10.2c0,0.1-0.2,0.4-0.5,0.4c-0.2,0-0.3-0.1-0.3-0.3
		s0-0.4,0.2-0.7c2-4,8.8-11,16.7-11c5.6,0,9,2.8,9,8c0,9.2-14,20.5-29.2,20.5c-8.8,0-12.9-4.6-12.9-9.7c0-10.8,14.2-30.5,20-30.5
		c1.6,0,2.6,1,2.6,2.7c0,4.8-12.4,17.5-20.4,24.9c0,0-0.6,0.8-0.6,2.8c0,4.3,3.5,8.5,11.2,8.5C221.3,180.7,235.2,169.8,235.2,161.4z
		 M196.9,167.3c6.9-6.4,18.8-18.4,18.8-23.2c0-0.7-0.4-1.1-1.1-1.1C210.4,143,200,157,196.9,167.3z"/>
</g>
<line class="st1" x1="-100" y1="314" x2="-100" y2="314"/>
</svg>
