<?xml version="1.0" encoding="utf-8"?>
<!-- Generator: Adobe Illustrator 22.1.0, SVG Export Plug-In . SVG Version: 6.00 Build 0)  -->
<svg version="1.1" id="Layer_1" xmlns="http://www.w3.org/2000/svg" xmlns:xlink="http://www.w3.org/1999/xlink" x="0px" y="0px"
	 viewBox="0 0 456 266" style="enable-background:new 0 0 456 266;" xml:space="preserve">
<style type="text/css">
	.st0{fill:none;}
	.st1{fill:none;stroke:#FFFFFF;stroke-width:3;stroke-miterlimit:10;}
</style>
<g>
	<rect x="-29" y="31.8" class="st0" width="298.6" height="148.3"/>
	<path class="st1" d="M173.6,122.8c0,1.9-4.9,8.3-17.6,8.3c-19.1,0-34.8-9.6-57.5-9.6c-17.8,0-23.7,10.7-23.7,17
		c0,0.9-0.3,1.3-0.9,1.3c-0.6,0-1-0.7-1-1.6c0-7.3,5.8-20.5,26.8-20.5c7.6,0,14.5,1.2,21.2,2.7c-0.4-0.7-0.6-1.5-0.6-2.5
		c0-2.5,3.9-20.9,14.4-46.4c11.6-28,27.6-52.2,29.9-52.6c-9-1.3-19.9-2.2-32.6-2.2c-29.7,0-51,11.6-51,30.7
		c0,16.6,17.2,24.9,27.1,24.9c1.3,0,1.8,0.3,1.8,0.9c0,0.9-0.7,1.2-2.8,1.2c-10.5,0-30.5-7.6-30.5-28.3c0-20.8,25.4-33.2,54.7-33.2
		c39.7,0,71.5,10.1,71.5,12.9c0,1.2-1.3,2.7-2.4,2.7c-1.3,0-12.5-5.9-34.7-9.3c1,0.4,2.1,1.6,2.1,2.2c0,1.6-15.1,18.7-29.1,52.8
		c-9.5,23.3-14.1,41.8-14.4,45.5l-0.4,1.5c11,2.7,21.5,5.9,33.1,5.9c11.6,0,15.1-4.9,16-4.9C173.3,122.1,173.6,122.4,173.6,122.8z"
		/>
</g>
<g>
	<rect x="-77.4" y="152.9" class="st0" width="577.4" height="148.3"/>
	<path class="st1" d="M96.5,137.3c-22.4,0-44.5,8.3-59.2,21.6c10.4,5,16.5,17.9,16.5,29.9c0,15.4-9.6,27.6-20.5,27.6
		c-9.8,0-17.6-7.3-17.6-20.6c0-13.5,5.8-25.6,15.3-35.6c-1-0.1-2.1-0.3-3.1-0.3c-13.3,0-23.1,10.2-24.6,15.3c-0.1,0.6-0.6,0.9-1,0.9
		c-0.6,0-0.9-0.4-0.9-1c0-3.1,8.6-18.4,26.5-18.4c2.1,0,4,0.3,5.9,0.9C49.3,143.1,72.9,134,96.5,134c35.4,0,54.9,18.7,54.9,48.2
		c0,42.4-28.2,74.9-69.7,74.9c-15.7,0-29.7-4.3-40.8-7.1c-6.2,8.6-12.8,14.1-20,14.1c-5,0-9.5-3.3-9.5-8.7c0-6.1,6.4-10.7,16.2-10.7
		c3.3,0,7,0.6,11.1,1.5c7.7-11.4,15-28.5,22.5-46.3c13.5-31.9,28.8-47.1,32.5-50c1.3-1,2.1-1.2,2.5-1.2c0.7,0,1.5,0.7,1.5,1.5
		c0,0.7-1,1.6-1.9,2.4c-3.9,2.8-17.5,17-30.7,48.5c-7.3,17.2-14.5,34.1-22.2,46.1c10.8,2.5,23.9,6.4,38.4,6.4
		c40.3,0,66.3-32.6,66.3-71.3C147.5,155.4,129.4,137.3,96.5,137.3z M36.7,249.1c-3.4-0.7-6.5-1.2-9.2-1.2c-7.7,0-12.5,3.7-12.5,7.4
		c0,3.4,2.5,5,5.8,5C26.3,260.4,31.7,256.1,36.7,249.1z M34.8,161.5c-9.3,9.5-15.1,21.2-15.1,34.4c0,11.3,5.6,17.3,13.6,17.3
		c9.2,0,16.6-10.7,16.6-24.3C49.9,177.8,44.6,165.5,34.8,161.5z"/>
	<path class="st1" d="M183.5,216.9c-5.8,6.7-17,17.5-24.6,17.5c-4,0-7.4-2.7-7.4-7.7c0-14.5,21.1-34.5,37.2-34.5
		c7,0,10.1,3.7,10.1,7.4c0,2.7-1.8,4.7-2.7,4.7c-0.6,0-0.9-0.3-0.9-0.9c0-0.7,0.4-1.5,0.4-3c0-2.1-1.2-5-5.6-5
		c-16.3,0-34.5,19.1-34.5,31.3c0,3.1,1.5,4.3,3.9,4.3c6.2,0,16.2-9.3,21.1-15.3c4-4.7,6.8-9.3,8.2-9.3c0.9,0,1.9,0.7,1.9,1.9
		c0,0.9-3,4.4-3,9.6c0,5.5,2.5,8,6.4,8c4.2,0,9.8-3.7,17.5-12.3c0,0,0.7-0.9,1.3-0.9c0.9,0,1.5,0.6,1.5,1.3c0,0.6-0.7,1.5-0.7,1.5
		c-8.3,9-14.8,13.5-20.3,13.5C187.5,229.1,183.5,224,183.5,216.9z"/>
	<path class="st1" d="M272.1,255.6c15.1,0,24.8-8.6,28.6-11.4c0.6-0.4,1-0.7,1.3-0.7c0.4,0,1,0.4,1,0.9s-0.4,0.9-0.9,1.3
		c-3.7,3.6-14.2,12.9-30.1,12.9c-17,0-31.7-10.2-31.7-25.5c0-17.8,14.5-27.6,14.5-34c0-1.6-1.3-2.8-3.1-2.8
		c-9.5,0-29.4,16-44.9,34.2c-1,1.3-1.6,1.8-2.5,1.8c-1,0-2.1-0.9-2.1-2.2c0-1.2,1.8-4.7,4.9-10.1c5.6-9.6,17.3-25.8,19.6-25.8
		c0.9,0,2.1,1,2.1,1.8c0,0.6-0.4,1-1.5,2.2c-5.3,6.1-12.5,15.4-17.6,24.5c11.3-13,32-29.9,43-29.9c3.9,0,6.5,2.8,6.5,6.4
		c0,7.9-15.1,17.8-15.1,33.7C244.1,246.4,256,255.6,272.1,255.6z"/>
	<path class="st1" d="M317.5,172.3c0-11.4-7.7-17.6-18.1-17.6c-32.8,0-59.7,27.3-94.9,27.3c-16.5,0-24.3-8.9-24.3-18.2
		c0-0.9,0.3-1.6,1.2-1.6c0.7,0,1.2,0.4,1.2,1.5c0,7.9,7,15.6,21.9,15.6c35.7,0,60.8-27.4,94.9-27.4c12,0,21.3,7.3,21.3,20.6
		c0,27-34.4,59.5-50.6,59.5c-5,0-8.6-3.3-8.6-8.6c0-10.1,15.4-30.1,17.8-30.1c1,0,1.8,0.7,1.8,1.6c0,0.3-0.1,0.9-0.7,1.6
		c-3.6,4.3-14.8,18.2-14.8,26.8c0,3.4,2.2,5.5,5.6,5.5C285.2,228.6,317.5,197.8,317.5,172.3z M301,168.7c0,2.1-2.1,5.9-4.4,5.9
		c-1.3,0-2.4-0.7-2.4-2.2c0-2.5,2.4-5.8,4.4-5.8C300,166.7,301,167.4,301,168.7z"/>
	<path class="st1" d="M317.2,234.7c-7.7,0-14.2-4.7-14.2-13.2c0-13.8,18.4-28.8,29.7-28.8c4.6,0,7.4,2.7,7.4,6.4
		c0,8.7-20.3,17-32.8,20c-0.1,0.9-0.1,1.9-0.1,2.8c0,5.6,4,9.3,10.1,9.3c16.8,0,31.4-17.6,31.4-17.6s0.7-0.9,1.5-0.9
		c0.9,0,1.3,0.6,1.3,1.3c0,0.6-0.7,1.5-0.7,1.5S334.4,234.7,317.2,234.7z M308.3,215.7c11.3-2.7,28.2-10.2,28.2-17
		c0-1.3-1.2-2.7-3.3-2.7C324.6,196,312.3,205.7,308.3,215.7z"/>
	<path class="st1" d="M358.6,233.2c-6.2,0-11-4.3-11-11.6c0-24.8,32.8-70.3,46.1-70.3c3.7,0,6.1,2.4,6.1,6.2
		c0,11.1-28.6,40.3-47.1,57.5c0,0-1.3,1.8-1.3,6.5c0,5.2,2.8,8.2,8,8.2c9.5,0,21.6-13.9,23.7-16.2c0,0,0.7-0.9,1.3-0.9
		c0.9,0,1.5,0.6,1.5,1.3c0,0.6-0.7,1.5-0.7,1.5C383,217.8,369.4,233.2,358.6,233.2z M352.9,210.5c15.3-14.7,43.4-43.4,43.4-53.5
		c0-1.6-1-2.5-2.5-2.5C384.2,154.5,360.2,188.5,352.9,210.5z"/>
	<path class="st1" d="M383.6,216.3c-0.9,0-1.3-0.6-1.3-1.2c0-0.6,0.7-1.5,0.7-1.5c5.6-6.2,10.2-13.2,12.9-17.9
		c2.5-4.6,5.6-7.3,7.1-7.3c1.2,0,2.7,1.3,2.7,2.4c0,1.6-7.1,5.8-7.1,11.7c0,6.4,5.3,11.4,5.3,20.6v0.1c6.1-0.7,11.9-3.1,17.5-9.6
		c0,0,0.7-0.9,1.3-0.9c0.9,0,1.5,0.6,1.5,1.3c0,0.6-0.7,1.5-0.7,1.5c-6.4,7.4-13.5,9.9-20,10.7c-1.6,5.9-7.9,9.5-14.7,9.5
		c-5.2,0-8.9-3.4-8.9-6.5c0-3.9,3.6-5.8,8.7-5.8c3.9,0,7.7,0.3,11.6,0.1V223c0-7.9-5.3-13-5.3-19.9c-0.1,0.3-3.9,5.8-9.8,12.5
		C385.1,215.6,384.4,216.3,383.6,216.3z M399.6,226.4c-3.7,0.1-7.1-0.1-9.9-0.1c-4.2,0-6.4,0.6-6.4,2.7c0,2.1,2.1,3.9,5.6,3.9
		C394,232.8,398.3,230.7,399.6,226.4z"/>
</g>
<g>
	<path class="st1" d="M189,91.5c3.3,0,5.2,2.2,5.2,5.3c0,3.7-4.7,9.8-8.7,13.5c0.7,6.2,5.9,13.5,5.9,22.7c0,0.6,0,1-0.1,1.5
		c6.2-1.5,12.3-4.6,17.6-11c0,0,0.7-0.9,1.3-0.9c0.9,0,1.5,0.6,1.5,1.3c0,0.6-0.7,1.5-0.7,1.5c-6.4,7.4-13.6,10.5-20.3,12.2
		c-2.1,6.8-8.6,11-15.1,11c-5.2,0-8.9-3.4-8.9-6.5c0-3.9,2.8-5.3,8.2-5.6c4.2-0.1,8.5-0.3,12.6-1c0.1-0.7,0.3-1.6,0.3-2.5
		c0-7.9-4.2-13.6-5.3-20c0,0-3.7,5.8-9.8,12.6c0,0-0.7,0.7-1.5,0.7c-0.9,0-1.3-0.6-1.3-1.2c0-0.6,0.7-1.5,0.7-1.5
		c5.6-6.2,8.6-11,11-15.9C181.4,100.1,183.8,91.5,189,91.5z M186.4,138.4c-9.3,1.3-16.5,0-16.5,3.4c0,2.1,2.1,3.9,5.6,3.9
		C180.2,145.6,184.5,142.8,186.4,138.4z M190.6,96.8c0-1-0.6-1.6-1.5-1.6c-3,0-3.9,6.5-4.2,11C187.2,104.1,190.6,99.2,190.6,96.8z"
		/>
	<path class="st1" d="M236.2,126.8c-5.8,6.7-17,17.5-24.6,17.5c-4,0-7.4-2.7-7.4-7.7c0-14.5,21.1-34.5,37.2-34.5
		c7,0,10.1,3.7,10.1,7.4c0,2.7-1.8,4.7-2.7,4.7c-0.6,0-0.9-0.3-0.9-0.9c0-0.7,0.4-1.5,0.4-3c0-2.1-1.2-5-5.6-5
		c-16.3,0-34.5,19.1-34.5,31.3c0,3.1,1.5,4.3,3.9,4.3c6.2,0,16.2-9.3,21.1-15.3c4-4.7,6.8-9.3,8.2-9.3c0.9,0,1.9,0.7,1.9,1.9
		c0,0.9-3,4.4-3,9.6c0,5.5,2.5,8,6.4,8c4.2,0,9.8-3.7,17.5-12.3c0,0,0.7-0.9,1.3-0.9c0.9,0,1.5,0.6,1.5,1.3c0,0.6-0.7,1.5-0.7,1.5
		c-8.3,9-14.8,13.5-20.3,13.5C240.3,138.9,236.2,133.9,236.2,126.8z"/>
	<path class="st1" d="M356.8,4.5c-0.6-0.1-1-0.6-1-1s0.3-0.9,0.9-0.9c0.3,0,0.6,0,1,0.1c4.2,1.3,14.5,5.3,14.5,18.2
		c0,29.9-53.7,43-53.7,61.4c0,5.2,3.4,8.7,9.8,8.7c13.2,0,31.4-20,31.4-34.1c0-7.3-4.7-11.7-13.8-11.7c-33.2,0-58.3,43.1-72.8,68.3
		c-4.9,8.6-7.4,14.5-7.4,14.5c6.5-6.2,22.2-19,29.7-19c4.4,0,7.3,2.8,7.3,7.7c0,14.5-18.8,32.5-34.7,32.5c-4.9,0-7.7-2.5-7.7-5.8
		c0-7.6,16-6.2,30.2-7.4c9.8-0.9,18.8-6.5,24.3-12.6c0,0,0.7-0.9,1.5-0.9s1.3,0.6,1.3,1.3c0,0.6-0.7,1.5-0.7,1.5
		c-7.6,8-16.5,12.3-26.8,13.3c-12,1.2-26.2,0.1-26.2,4.6c0,1.5,1.5,2.8,4.2,2.8c13.2,0,30.5-15.7,30.5-28.9c0-3.1-1.5-4.3-3.9-4.3
		c-5.8,0-19.7,10.5-27,17.8c-3,3-3.9,4.3-4.7,4.3c-1,0-2.4-1.2-2.4-2.5c0-1.5,2.7-8.9,9.5-20.9C284.9,85.6,310.2,42,346.2,42
		c11.1,0,16.9,6.4,16.9,15.4c0,15.7-20.2,36.6-34.8,36.6c-7.7,0-12.9-5-12.9-11.4c0-20.6,53.8-34.2,53.8-61.7
		C369.2,9.5,360.8,6,356.8,4.5z"/>
	<path class="st1" d="M327.1,144.6c-7.7,0-14.2-4.7-14.2-13.2c0-13.8,18.4-28.8,29.7-28.8c4.6,0,7.4,2.7,7.4,6.4
		c0,8.7-20.3,17-32.8,20c-0.1,0.9-0.1,1.9-0.1,2.8c0,5.6,4,9.3,10.1,9.3c16.8,0,31.4-17.6,31.4-17.6s0.7-0.9,1.5-0.9
		c0.9,0,1.3,0.6,1.3,1.3c0,0.6-0.7,1.5-0.7,1.5S344.3,144.6,327.1,144.6z M318.2,125.6c11.3-2.7,28.2-10.2,28.2-17
		c0-1.3-1.2-2.7-3.3-2.7C334.5,105.9,322.2,115.5,318.2,125.6z"/>
	<path class="st1" d="M451.2,106.6c0-10.2-6.1-15.6-18.1-15.6c-16.9,0-32,14.4-36.6,23.6c-0.1,0.3-0.4,1-1.2,1
		c-0.4,0-0.7-0.3-0.7-0.7s0.1-0.9,0.4-1.5c4.6-9.3,20.2-25.4,38.5-25.4c12.9,0,20.8,6.4,20.8,18.5c0,21.2-32.3,47.3-67.2,47.3
		c-20.2,0-29.7-10.5-29.7-22.4c0-24.8,32.8-70.3,46.1-70.3c3.7,0,6.1,2.4,6.1,6.2c0,11.1-28.6,40.3-47.1,57.5c0,0-1.3,1.8-1.3,6.5
		c0,9.9,8,19.6,25.8,19.6C419.2,151.1,451.2,126,451.2,106.6z M362.9,120.4c16-14.7,43.4-42.5,43.4-53.5c0-1.6-1-2.5-2.5-2.5
		C394.1,64.4,370,96.5,362.9,120.4z"/>
</g>
<line class="st0" x1="-100" y1="314" x2="-100" y2="314"/>
<g>
</g>
<g>
</g>
<g>
</g>
<g>
</g>
<g>
</g>
<g>
</g>
<g>
</g>
<g>
</g>
<g>
</g>
<g>
</g>
<g>
</g>
<g>
</g>
<g>
</g>
<g>
</g>
<g>
</g>
</svg>
