<?xml version="1.0" encoding="utf-8"?>
<!-- Generator: Adobe Illustrator 22.1.0, SVG Export Plug-In . SVG Version: 6.00 Build 0)  -->
<svg version="1.1" xmlns="http://www.w3.org/2000/svg" xmlns:xlink="http://www.w3.org/1999/xlink" x="0px" y="0px"
	 viewBox="0 0 1366 768" style="enable-background:new 0 0 1366 768;" xml:space="preserve">
<style type="text/css">
	.st0{display:none;}
	.st1{display:inline;fill:#43156B;stroke:#FFFFFF;stroke-width:3;stroke-miterlimit:10;}
	.st2{fill:none;stroke:#FFFFFF;stroke-width:3;stroke-miterlimit:10;}
</style>
<g id="Layer_2" class="st0">
	<rect x="-0.5" y="0.5" class="st1" width="1354" height="768"/>
</g>
<g id="Layer_1">
	<path class="st2" d="M727.5,755.5c-1.5-10.4-2.6-27.1,3-46c5.8-19.6,22.2-53.2,40-51c13,1.6,26.1,21.3,22,35
		c-3.1,10.2-17.3,16.6-27,16c-32.1-1.9-72.3-82.4-68-157c5.3-92.5,77.3-119.2,136-278c11.4-30.8,27.9-79.6,4.8-108.2
		c-9-11.1-21.7-15.8-31.8-18.8c-27.1-8.1-49.5,9.9-60,33c-12.7,27.8,4.7,56.2,34.5,67.5c37.8,14.4,83.5-9.1,100.5-44.5
		c11.9-24.7,6.9-49.2,4.5-58.5c-3.4-11.3-9.4-26.3-20.5-41.5C841.1,70.2,808,57.5,794,53c-26.6-5.8-109.6-30.1-207.5,34.5
		c-37.8,25-111,117-73,125c18.8,4,24.2-18.7,18-27.4c-1.3-1.9-3-3.4-5-4.6c-8.7-5.2-24,0-33,9c-14.1,14.1-17.6,45.5-55,59
		c-5.4,1.9-17,6.7-32.5,5.5c-27.2-2.1-46.2-15.2-52.5-20.5c-11-9.2-17.4-19.3-21-26"/>
</g>
</svg>
