<?xml version="1.0" encoding="utf-8"?>
<!-- Generator: Adobe Illustrator 22.1.0, SVG Export Plug-In . SVG Version: 6.00 Build 0)  -->
<svg version="1.1" id="Layer_1" xmlns="http://www.w3.org/2000/svg" xmlns:xlink="http://www.w3.org/1999/xlink" x="0px" y="0px"
	 viewBox="0 0 1440 900" style="enable-background:new 0 0 1440 900;" xml:space="preserve">
<style type="text/css">
	.st0{fill:#EAF2F2;}
</style>
<g>
	<path class="st0" d="M346.3,525.8c-0.8-1-1-1.4-1-2s0.8-1.4,1.4-1.4s1.2,0.2,2,1.2c5.2,6.6,6.4,11.6,6.4,19.4
		c0,52-58,96.4-91.2,128.4c-2,1.8-4,3.6-5.6,5.4c-1.6,6-3.2,11.2-5,15.4c-2,4.2-5,5.4-7,5.4c-3.2,0-5.6-2.6-5.6-5.2
		c0-2.6,1.2-4.6,3.2-7c2.2-2.8,5.6-6.2,10-10.4c2.6-12.2,5.6-29.2,9.4-49.4l4.6-25.6c-21.8,25.6-54.8,55.8-78,76.8
		c-5.6,11.2-10.8,20-14.6,25.4c-2.4,3.2-5,4.4-8.2,4.4c-3.4,0-6-2.8-6-5.6c0-2.8,1.4-4.6,4.2-7.6c4.2-4.4,11.8-10.4,20.4-18
		c16.8-33.2,39.8-89.4,39.8-116.4c0-18.6-8.6-29.8-25.8-29.8c-36.6,0-88,54.8-88,92.8c0,12.6,7.2,21,20.6,21c22.8,0,46-41.8,52-64.2
		c0.2-0.8,0.6-2,1.8-2c0.8,0,1.8,0.4,1.8,1.4c0,0.6-0.2,1.4-0.4,2.2c-6.4,24.6-29,67.4-56.6,67.4c-15.2,0-24-10.4-24-25.8
		c0-40,54.2-97.6,92.8-97.6c20.4,0,30.6,13.2,30.6,34.6c0,25.8-18.6,73.6-35.4,107.8c24.2-22.2,55.6-52,74.4-75.6
		c2.2-11.2,4.2-20.8,6.6-27.4c2-5.4,5.2-8.2,9-8.2c2.8,0,5.6,2.4,5.6,5.4c0,2.4-0.4,4.4-1,6.2c-2.4,6.8-7.6,15-14.6,24.2
		c-2.2,10.4-4.4,22.6-6.8,35c-3.2,16.8-5.6,31-8.2,42.8c0.4-0.2,0.8-0.6,1.2-1c32-30.8,89.2-75.8,89.2-125.2
		C350.3,538.4,350.3,531.2,346.3,525.8z M180.3,685.4c-5.4,4.8-9.6,8.4-12,10.8c-1.6,1.4-2.8,2.8-2.8,4.4c0,1,1,1.8,1.8,1.8
		c1.6,0,3-1.4,4-2.6C173.5,697.2,176.7,692.2,180.3,685.4z M251.7,683.6l-4.4,5c-0.8,1-1.8,2.4-1.8,3.2c0,1,0.6,1.6,1.4,1.6
		c0.8,0,1.6-1,2.4-2.8C250.1,688.8,250.9,686.4,251.7,683.6z M277.1,580.8c3.8-5.6,6.6-10.6,7.8-14.8c0.6-2,0.8-2.8,0.8-4
		c0-0.8-0.6-1.6-1.6-1.6c-1.6,0-2.4,1.6-3.2,4.6C279.7,568.6,278.5,574.2,277.1,580.8z"/>
	<path class="st0" d="M351.3,658.6c-10.4,0-19.2-6.4-19.2-17.8c0-18.6,24.8-38.8,40-38.8c6.2,0,10,3.6,10,8.6
		c0,11.8-27.4,23-44.2,27c-0.2,1.2-0.2,2.6-0.2,3.8c0,7.6,5.4,12.6,13.6,12.6c22.6,0,42.4-23.8,42.4-23.8s1-1.2,2-1.2
		c1.2,0,1.8,0.8,1.8,1.8c0,0.8-1,2-1,2S374.5,658.6,351.3,658.6z M339.3,633c15.2-3.6,38-13.8,38-23c0-1.8-1.6-3.6-4.4-3.6
		C361.3,606.4,344.7,619.4,339.3,633z"/>
	<path class="st0" d="M419.5,647.2c0,0,1.2-1.2,2-1.2c1,0,1.8,0.8,1.8,1.8s-1.6,2.2-1.6,2.2s-7.2,6.6-14.6,6.6
		c-8.4,0-14.8-5.8-14.8-15.6c0-33.4,44.2-94.8,62.2-94.8c5,0,8.2,3.2,8.2,8.4c0,15-38.6,54.4-63.6,77.6c0,0-1.8,2.4-1.8,8.8
		c0,7,3.8,11.4,10.8,11.4C413.7,652.4,419.5,647.2,419.5,647.2z M399.5,626c21.6-19.8,58.6-57.4,58.6-72.2c0-2.2-1.4-3.4-3.4-3.4
		C441.7,550.4,409.1,593.8,399.5,626z"/>
	<path class="st0" d="M455.3,655.4c-11.8,0-17.6-6.4-17.6-16c0-18.8,27.2-39.2,42.4-39.2c6.4,0,10.6,3.4,10.6,8.6
		c0,5.6-7.4,10.4-8.4,10.4s-1.8-0.8-1.8-1.8c0-1.2,5.8-4.2,5.8-8.6c0-2.6-1.8-4.4-4.8-4.4c-13.8,0-38.2,18.4-38.2,35.2
		c0,7.6,3.6,11.6,12.8,11.6c19.4,0,35.6-15.8,40.4-21c0,0,1-1.2,2-1.2s1.8,0.8,1.8,1.8c0,0.8-1,2-1,2
		C494.5,637.8,476.7,655.4,455.3,655.4z"/>
	<path class="st0" d="M531.1,646c-6.6,5.8-14.2,9.6-20.6,9.6c-8.6,0-15.2-5.8-15.2-16.8c0-9.6,3.6-18,9.2-24.2
		c2.2-12.2,15.2-21.4,26.8-21.4c9.6,0,17.2,6.4,17.2,20c0,10-5.8,20.6-13.4,28.8h1.4c8.4,0,17-4,24.4-11.8c0,0,1-1.2,2-1.2
		s1.8,0.8,1.8,1.8c0,0.8-1,2-1,2c-9,9.2-19.2,13.4-28.2,13.4C533.9,646.2,532.5,646.2,531.1,646z M525.5,644.6
		c-10.4-3.4-18.4-11.8-20.6-21.2c-2.6,4.6-4,9.6-4,15.4c0,8.4,3.6,12,10.6,12C515.7,650.8,520.7,648.4,525.5,644.6z M529.5,641.2
		c7.6-7.6,13.8-18.2,13.8-28c0-10.4-6-15.2-12.2-15.2c-5.6,0-13.4,3.6-18,9.2c5.8-3.6,12.4-5.8,18.4-5.8c1.8,0,3.2,0.4,3.2,1.6
		c0,1.2-0.8,1.4-2.2,1.6c-8.4,1.2-17.2,5.8-23.4,13C509.1,628,517.3,638.2,529.5,641.2z"/>
	<path class="st0" d="M687.7,686.8c42.2,0,85.2-19.2,114-19.2c16.2,0,22.6,8.6,22.6,10.2c0,0.8-0.6,1.2-1.2,1.2c-0.8,0-6-8-21.4-8
		c-30.4,0-70.4,19.8-114,19.8c-31.8,0-50.2-13.6-50.2-34.4c0-18.8,14-30.8,14-37.2c0-2.4-1.8-3.6-4-3.6c-8.8,0-29.4,18.2-39.8,27.8
		c-2.8,2.6-4.4,4.4-5.8,4.4c-1.2,0-2.4-1-2.4-2.6c0-6.4,23.4-29.8,23.4-37.2c0-2.6-1.6-4.2-4.6-4.2c-12.6,0-45.2,27.2-61.4,46.8
		c-2.2,2.4-3.2,3.8-4.6,3.8c-1.2,0-3-1.4-3-3.2c0-2.2,3.2-7.6,9.6-18.2c8.4-14,25.4-32.8,27.6-32.8c1.4,0,2.6,1.4,2.6,2.6
		c0,0.8-0.8,1.6-2,2.8c-7,7-16.2,16.4-30.8,40.2c14.6-18.4,47.2-46.6,63-46.6c5.4,0,9,4,9,8.8c0,8-15.2,22.2-18.2,28.2
		c6.2-5.6,26.8-25.2,39-25.2c4.4,0,7.8,3.4,7.8,7.6c0,9.4-13.8,20-13.8,37.4C643.1,674.4,658.7,686.8,687.7,686.8z"/>
	<path class="st0" d="M733.1,620.2c0,0,1-2.2,2.2-2.2c1,0,2,0.6,2,1.6c0,0.8-0.8,2.4-0.8,2.4c-9.8,18.8-27.2,36.6-50.6,36.6
		c-12.2,0-21-6.4-21-17.8c0-18.6,24.8-38.8,40-38.8c6.2,0,10,3.6,10,8.6c0,11.8-27.4,23-44.2,27c-0.2,1.2-0.2,2.6-0.2,3.8
		c0,7.6,5.4,12.6,15.6,12.6C706.9,654,724.5,637.2,733.1,620.2z M672.1,633c15.2-3.6,38-13.8,38-23c0-1.8-1.6-3.6-4.4-3.6
		C694.1,606.4,677.5,619.4,672.1,633z"/>
</g>
</svg>
